<?xml version="1.0" standalone="no"?>
<!DOCTYPE svg PUBLIC "-//W3C//DTD SVG 20010904//EN"
 "http://www.w3.org/TR/2001/REC-SVG-20010904/DTD/svg10.dtd">
<svg version="1.0" xmlns="http://www.w3.org/2000/svg"
 width="180.000000pt" height="180.000000pt" viewBox="0 0 180.000000 180.000000"
 preserveAspectRatio="xMidYMid meet">
<metadata>
Created by potrace 1.11, written by Peter Selinger 2001-2013
</metadata>
<g transform="translate(0.000000,180.000000) scale(0.100000,-0.100000)"
fill="#000000" stroke="none">
<path d="M0 900 l0 -900 900 0 900 0 0 900 0 900 -900 0 -900 0 0 -900z m972
700 c83 -26 110 -25 145 4 51 43 57 22 28 -95 -46 -185 -44 -179 -65 -179 -14
0 -20 7 -20 21 0 46 -26 105 -65 145 -92 96 -265 95 -392 -2 -136 -103 -241
-382 -213 -561 25 -154 103 -223 260 -230 74 -4 91 -1 130 19 40 20 48 30 66
83 12 33 32 102 45 152 22 87 22 94 7 110 -10 9 -37 19 -60 22 -29 4 -43 11
-43 21 0 13 50 15 383 18 358 2 383 1 380 -15 -2 -10 -16 -20 -37 -24 -60 -12
-49 17 -195 -504 -63 -223 -96 -303 -151 -364 -85 -94 -268 -92 -325 2 -28 45
-26 92 5 122 30 30 64 32 99 4 22 -18 26 -28 26 -74 0 -45 3 -55 20 -60 32
-10 57 3 73 38 24 50 217 750 217 786 0 38 -26 51 -105 51 -60 0 -95 -12 -112
-39 -6 -10 -27 -80 -47 -157 -20 -76 -41 -149 -46 -161 -18 -42 -219 -103
-339 -103 -181 1 -319 75 -381 205 -94 196 -31 457 152 630 154 146 364 196
560 135z"/>
</g>
</svg>
